<svg xmlns="http://www.w3.org/2000/svg" xmlns:xlink="http://www.w3.org/1999/xlink" width="427.5" height="2" viewBox="0 0 427.5 2">
  <defs>
    <clipPath id="clip-path">
      <rect width="427.5" height="2" fill="none"/>
    </clipPath>
  </defs>
  <g id="リピートグリッド_1" data-name="リピートグリッド 1" clip-path="url(#clip-path)">
    <g transform="translate(-0.5 -223)">
      <line id="線_2" data-name="線 2" x2="11" transform="translate(0.5 223.5)" fill="none" stroke="#707070" stroke-width="2"/>
    </g>
    <g transform="translate(30.5 -223)">
      <line id="線_2-2" data-name="線 2" x2="11" transform="translate(0.5 223.5)" fill="none" stroke="#707070" stroke-width="2"/>
    </g>
    <g transform="translate(61.5 -223)">
      <line id="線_2-3" data-name="線 2" x2="11" transform="translate(0.5 223.5)" fill="none" stroke="#707070" stroke-width="2"/>
    </g>
    <g transform="translate(92.5 -223)">
      <line id="線_2-4" data-name="線 2" x2="11" transform="translate(0.5 223.5)" fill="none" stroke="#707070" stroke-width="2"/>
    </g>
    <g transform="translate(123.5 -223)">
      <line id="線_2-5" data-name="線 2" x2="11" transform="translate(0.5 223.5)" fill="none" stroke="#707070" stroke-width="2"/>
    </g>
    <g transform="translate(154.5 -223)">
      <line id="線_2-6" data-name="線 2" x2="11" transform="translate(0.5 223.5)" fill="none" stroke="#707070" stroke-width="2"/>
    </g>
    <g transform="translate(185.5 -223)">
      <line id="線_2-7" data-name="線 2" x2="11" transform="translate(0.5 223.5)" fill="none" stroke="#707070" stroke-width="2"/>
    </g>
    <g transform="translate(216.5 -223)">
      <line id="線_2-8" data-name="線 2" x2="11" transform="translate(0.5 223.5)" fill="none" stroke="#707070" stroke-width="2"/>
    </g>
    <g transform="translate(247.5 -223)">
      <line id="線_2-9" data-name="線 2" x2="11" transform="translate(0.5 223.5)" fill="none" stroke="#707070" stroke-width="2"/>
    </g>
    <g transform="translate(278.5 -223)">
      <line id="線_2-10" data-name="線 2" x2="11" transform="translate(0.5 223.5)" fill="none" stroke="#707070" stroke-width="2"/>
    </g>
    <g transform="translate(309.5 -223)">
      <line id="線_2-11" data-name="線 2" x2="11" transform="translate(0.5 223.5)" fill="none" stroke="#707070" stroke-width="2"/>
    </g>
    <g transform="translate(340.5 -223)">
      <line id="線_2-12" data-name="線 2" x2="11" transform="translate(0.5 223.5)" fill="none" stroke="#707070" stroke-width="2"/>
    </g>
    <g transform="translate(371.5 -223)">
      <line id="線_2-13" data-name="線 2" x2="11" transform="translate(0.5 223.5)" fill="none" stroke="#707070" stroke-width="2"/>
    </g>
    <g transform="translate(402.5 -223)">
      <line id="線_2-14" data-name="線 2" x2="11" transform="translate(0.5 223.5)" fill="none" stroke="#707070" stroke-width="2"/>
    </g>
  </g>
</svg>
