<svg xmlns="http://www.w3.org/2000/svg" width="128" height="127" viewBox="0 0 128 127">
  <g id="楕円形_3" data-name="楕円形 3" transform="translate(0 3)" fill="none" stroke="#fefcfb" stroke-width="5">
    <ellipse cx="64" cy="62" rx="64" ry="62" stroke="none"/>
    <ellipse cx="64" cy="62" rx="61.5" ry="59.5" fill="none"/>
  </g>
  <path id="パス_3" data-name="パス 3" d="M1060.667-60S1080-72.667,1094-60s34.667,0,34.667,0l10,6,6,6L1150-41.333,1154-32v8.667l3.333,6.667V-1.333l-7.333,18-8.667,12L1128.667,40,1110,47.333h-16L1074,44l-13.333-6.667-11.333-8.667-6.667-9.333-5.333-10.667v-10l-4-8v-7.333l4-15.333,5.333-9.333,6.667-10Z" transform="translate(-1032 76)" fill="#3bb4d6"/>
  <ellipse id="楕円形_7" data-name="楕円形 7" cx="64" cy="62" rx="64" ry="62" fill="none"/>
  <g id="楕円形_46" data-name="楕円形 46" transform="translate(0 3)" fill="none" stroke="#0a1128" stroke-width="5">
    <ellipse cx="64" cy="62" rx="64" ry="62" stroke="none"/>
    <ellipse cx="64" cy="62" rx="61.5" ry="59.5" fill="none"/>
  </g>
</svg>